<svg xmlns="http://www.w3.org/2000/svg" viewBox="0 0 64 64">
  <!--
    EN: Simple SVG favicon (safe to replace with your restaurant logo).
    AR: أيقونة SVG بسيطة (يمكن استبدالها بشعار مطعمك بأمان).

    Tip/نصيحة:
    - Keep the viewBox 64x64 for best results in browsers.
    - حافظ على viewBox بحجم 64x64 للحصول على أفضل نتيجة.
  -->
  <defs>
    <linearGradient id="g" x1="10" x2="54" y1="10" y2="54" gradientUnits="userSpaceOnUse">
      <stop offset="0" stop-color="#e4572e" />
      <stop offset="1" stop-color="#2d936c" />
    </linearGradient>
  </defs>
  <rect width="64" height="64" rx="18" fill="url(#g)" />
  <path
    d="M41.2 22.7c-1.2-3-4.1-5-8-5-4.7 0-8.2 2.4-8.2 6.4 0 3.8 3.2 5.1 7.6 6 3.7.8 4.6 1.5 4.6 2.8 0 1.5-1.5 2.4-3.8 2.4-2.8 0-4.5-1.1-5.6-3.2l-5 2.6c2 4 5.6 6 10.7 6 5.3 0 9.4-2.6 9.4-7 0-4.1-3.1-5.7-8.4-6.9-3.3-.7-3.9-1.2-3.9-2.2 0-1.1 1.2-2 3.1-2 2 0 3.4.9 4.3 2.6l4.9-2.5Z"
    fill="#fff"
  />
</svg>
